<?xml version="1.0" ?><!DOCTYPE svg  PUBLIC '-//W3C//DTD SVG 1.1//EN'  'http://www.w3.org/Graphics/SVG/1.1/DTD/svg11.dtd'><svg enable-background="new 0 0 512 512" id="Layer_1" version="1.1" viewBox="0 0 512 512" xml:space="preserve" xmlns="http://www.w3.org/2000/svg" xmlns:xlink="http://www.w3.org/1999/xlink"><g><g><circle cx="256" cy="256" fill="#3A70BF" r="244.4"/></g></g><g><path d="M152.5,320.8c0-43.9,0-87.7,0-131.5c0.2,0,0.4-0.1,0.6-0.1c21.3,0,42.6-0.1,63.9,0c7,0,13.9,1.1,20.4,4   c10.6,4.7,16.6,12.9,18.3,24.3c0.9,6.1,0.6,12.1-1.5,17.9c-2.1,5.9-6.2,10.2-11.5,13.3c-0.8,0.5-1.6,0.9-2.5,1.4   c0.4,0.2,0.8,0.3,1.1,0.5c10.2,4.1,16.4,11.7,18.4,22.5c1.6,8.8,0.8,17.3-3.2,25.4c-5.8,11.7-15.2,18.7-28.1,20.9   c-5.6,0.9-11.1,1.4-16.8,1.4c-19.3,0-38.6,0-57.9,0C153.3,320.8,152.9,320.8,152.5,320.8z M182.8,297.9c0.3,0,0.5,0,0.7,0   c9.2,0,18.5,0.1,27.7,0c2.8,0,5.6-0.3,8.4-0.9c6.6-1.3,10.8-5.3,12.4-11.9c0.6-2.4,0.7-4.9,0.6-7.4c-0.3-6.3-3.7-11-9.7-13.2   c-3.1-1.1-6.3-1.6-9.5-1.6c-10-0.1-20.1-0.1-30.2-0.1c-0.1,0-0.2,0-0.4,0.1C182.8,274.6,182.8,286.2,182.8,297.9z M182.8,241.1   c0.2,0,0.4,0,0.6,0c9.4,0,18.7,0.1,28.1,0c4.3,0,8.4-0.7,12.3-2.8c2.8-1.5,4.6-3.8,5.5-6.9c0.7-2.6,0.8-5.3,0.5-7.9   c-0.6-5-3.5-8.5-8.4-9.8c-4.3-1.2-8.7-1.6-13.1-1.6c-8.2-0.1-16.4,0-24.6,0c-0.3,0-0.5,0-0.8,0   C182.8,221.8,182.8,231.4,182.8,241.1z" fill="#FFFFFF"/><path d="M363.9,276.5c-22.9,0-45.7,0-68.6,0c0.1,1.4,0.2,2.7,0.4,4c0.3,2.7,1,5.2,2.2,7.7   c3.1,6.4,8.3,9.8,15.1,11.2c3.8,0.8,7.7,0.8,11.5-0.1c5.7-1.2,9.8-4.4,12.6-9.5c0.3-0.6,0.6-0.7,1.3-0.7c7.8,0,15.6,0,23.4,0   c0.3,0,0.5,0,1,0c-0.3,1.3-0.5,2.6-0.9,3.7c-1.4,4.8-4.3,8.7-7.5,12.4c-7.1,8-16.1,12.4-26.5,13.9c-8.3,1.2-16.5,1-24.6-1.3   c-8.4-2.4-15.9-6.6-21.9-13c-4.9-5.1-7.7-11.4-9.1-18.3c-2.6-12.1-2.6-24.2,1.1-36.1c5.2-16.8,16.8-26.6,34-29.8   c10.6-2,21.1-1.1,31.1,3.1c9.3,3.8,15.8,10.7,20.3,19.5c2.9,5.7,4.5,11.9,4.9,18.3c0.3,4.7,0.3,9.4,0.4,14.1   C363.9,276,363.9,276.2,363.9,276.5z M338.3,260.2c0-0.2,0-0.3,0-0.4c-0.1-0.9-0.2-1.8-0.3-2.7c-1.2-7.2-5.1-12.4-12-15.2   c-3.5-1.5-7.3-1.8-11-1.5c-7.8,0.5-13.4,4.3-16.7,11.5c-0.9,1.9-1.4,4-2,6c-0.2,0.8-0.3,1.5-0.4,2.4   C310.1,260.2,324.2,260.2,338.3,260.2z" fill="#FFFFFF"/><path d="M290.5,209.9c0-5.1,0-10.1,0-15.2c17.6,0,35.2,0,52.9,0c0,5,0,10.1,0,15.2   C325.8,209.9,308.2,209.9,290.5,209.9z" fill="#FFFFFF"/></g><g><path d="M255.3,474.1c-58.5,0-113.5-22.8-154.9-64.2S36.2,313.5,36.2,255S59,141.5,100.3,100.1   c41.4-41.4,96.4-64.2,154.9-64.2s113.5,22.8,154.9,64.2s64.2,96.4,64.2,154.9s-22.8,113.5-64.2,154.9S313.8,474.1,255.3,474.1z    M255.3,51.9C143.3,51.9,52.2,143,52.2,255s91.1,203.1,203.1,203.1s203-91.1,203-203.1S367.2,51.9,255.3,51.9z" fill="#FFFFFF"/></g></svg>